# xmcd
#
# Track frame offsets:
#	150
#	45425
#	66245
#	99057
#	136167
#	155700
#	194167
#	224180
#	267415
#	293400
#	328975
#
# Disc length: 4525 seconds
#
# Revision: 1
# Processed by: cddbd v1.5.1PL0 Copyright (c) Steve Scherf et al.
# Submitted via: audiograbber 1.83.01
#
DISCID=ae11ab0b
DTITLE=Dédale - Alive face B
DYEAR=2003
DGENRE=Folklore
TTITLE0=Cinq degrés de plus
TTITLE1=No past
TTITLE2=Alive
TTITLE3=Andrométric
TTITLE4=Du pain et des oeufs part 1 et 2
TTITLE5=Larissa
TTITLE6=La guinguette ~ Phyllis
TTITLE7=La tripolitaine
TTITLE8=Laridé
TTITLE9=Comme dans un troquet vide
TTITLE10=Valse débranchée
EXTD=
EXTT0=
EXTT1=
EXTT2=
EXTT3=
EXTT4=
EXTT5=
EXTT6=
EXTT7=
EXTT8=
EXTT9=
EXTT10=
PLAYORDER=
